<svg data-v-0dd9719b="" version="1.0" xmlns="http://www.w3.org/2000/svg" xmlns:xlink="http://www.w3.org/1999/xlink" width="100%" height="100%" viewBox="0 0 340.000000 250.000000" preserveAspectRatio="xMidYMid meet" color-interpolation-filters="sRGB" style="margin: auto;"> <rect data-v-0dd9719b="" x="0" y="0" width="100%" height="100%" fill="#fff" fill-opacity="1" class="background"></rect> <rect data-v-0dd9719b="" x="0" y="0" width="100%" height="100%" fill="url(#watermark)" fill-opacity="1" class="watermarklayer"></rect> <g data-v-0dd9719b="" fill="#f90784" class="icon-text-wrapper icon-svg-group iconsvg" transform="translate(48.730003356933594,95)"><g class="iconsvg-imagesvg" transform="translate(0,0)"><g><rect fill="#f90784" fill-opacity="0" stroke-width="2" x="0" y="0" width="60" height="60" class="image-rect"></rect> <svg x="0" y="0" width="60" height="60" filtersec="colorsb5118176991" class="image-svg-svg primary" style="overflow: visible;"><svg xmlns="http://www.w3.org/2000/svg" viewBox="0 -2.014388140883852e-13 56.690006256103516 56.69000244140625"><g><g><path d="M12.76 28.35a15.6 15.6 0 0 1 15.59-15.59V0A28.35 28.35 0 0 0 0 28.35z" fill="#f90784"></path><path d="M15.59 28.35h12.76V15.59a12.77 12.77 0 0 0-12.76 12.76z" fill="#f90784"></path><path d="M12.76 28.35H0a28.34 28.34 0 0 0 28.35 28.34V43.94a15.61 15.61 0 0 1-15.59-15.59z" fill="#39cadd"></path><path d="M15.59 28.35A12.77 12.77 0 0 0 28.35 41.1V28.35z" fill="#39cadd"></path><path d="M28.35 12.76a15.61 15.61 0 0 1 15.59 15.59h12.75A28.34 28.34 0 0 0 28.35 0v12.76z" fill="#63cc10"></path><path d="M41.1 28.35a12.77 12.77 0 0 0-12.75-12.76v12.76z" fill="#63cc10"></path><path fill="#6f3a50" d="M28.35 28.35h12.76v12.76H28.35zM28.35 43.94v12.75H41.1V43.94H28.35zM56.69 28.35H43.94v28.34h12.75V28.35z"></path></g></g></svg></svg> <!----></g></g> <g transform="translate(67,1.4987506866455078)"><g data-gra="path-name" fill-rule="" class="tp-name iconsvg-namesvg" transform="translate(0,0)"><g transform="scale(1)"><g><path d="M40.5-32.53L40.5-19.84 36.63-19.84 36.63-19.8 25.7-19.8 25.7-18.45 42.03-18.45 42.03-13.14 2.52-13.14 2.52-18.45 18.36-18.45 18.36-19.8 4.05-19.8 4.05-32.53 18.36-32.53 18.36-34.34 25.7-34.34 25.7-32.53 40.5-32.53ZM41.27-12.06L41.27-0.18 33.93-0.18 33.93-6.25 10.75-6.25 10.75-0.18 3.46-0.18 3.46-12.06 41.27-12.06ZM10.75 1.13L18.54-2.92 18.59-2.88 18.59-5.13 25.92-5.13 25.92-2.88 33.3 1.13 41.27 1.13 41.27 7.2 28.98 7.2 21.96 3.19 14.63 7.2 3.28 7.2 3.28 1.13 10.75 1.13ZM25.7-27.18L25.7-25.2 33.16-25.2 33.16-27.18 25.7-27.18ZM11.38-27.18L11.38-25.2 18.36-25.2 18.36-27.18 11.38-27.18ZM50.45-33.98L57.78-33.98 57.78 7.29 46.98 7.29 46.98 0.49 50.45 0.49 50.45-12.87 46.98-12.87 46.98-19.71 50.45-19.71 50.45-33.98ZM65.7-33.98L73.03-33.98 73.03 7.29 65.7 7.29 65.7-12.87 60.8-12.87 60.8-19.71 65.7-19.71 65.7-33.98ZM81-33.98L88.29-33.98 88.29 7.29 81 7.29 81-12.87 76.09-12.87 76.09-19.71 81-19.71 81-33.98ZM94.45-33.98L131.04-33.98 131.04-15.39 94.45-15.39 94.45-33.98ZM95.94-14.49L103.23-14.49 102.73-12.51 111.19-12.51 111.19-14.49 118.53-14.49 118.53-12.51 132.16-12.51 132.16-7.38 118.53-7.38 118.53-5.22 131.89-5.22 131.89 0 118.53 0 118.53 2.11 132.97 2.11 132.97 7.29 92.52 7.29 92.52 2.11 111.19 2.11 111.19 0 93.6 0 93.6-5.22 111.19-5.22 111.19-7.38 101.43-7.38 101.11-6.12 93.87-6.12 95.94-14.49ZM101.79-28.66L101.79-27.13 123.7-27.13 123.7-28.66 101.79-28.66ZM101.79-22.23L101.79-20.79 123.7-20.79 123.7-22.23 101.79-22.23ZM174.6-31.45L177.3-31.45 177.3-25.11 174.6-25.11 174.6-5.63 178.06-5.63 178.06 0.72 173.56 0.72 174.91 7.15 167.67 7.15 166.28 0.72 158.9 0.72 157.23 7.15 149.53 7.15 151.25 0.72 147.24 0.72 147.24-5.63 150.79-5.63 150.79-25.11 148.05-25.11 148.05-31.45 150.79-31.45 150.79-33.98 158.09-33.98 158.09-31.45 167.31-31.45 167.31-33.98 174.6-33.98 174.6-31.45ZM137.97-13.81L145.31-13.81 145.31 7.15 137.97 7.15 137.97-13.81ZM145.31-23.94L145.31-16.61 137.97-16.61 137.97-23.94 145.31-23.94ZM145.31-33.98L145.31-26.68 137.97-26.68 137.97-33.98 145.31-33.98ZM158.09-25.11L158.09-22.81 167.31-22.81 167.31-25.11 158.09-25.11ZM158.09-16.47L158.09-14.22 167.31-14.22 167.31-16.47 158.09-16.47ZM158.09-7.83L158.09-5.63 167.31-5.63 167.31-7.83 158.09-7.83Z" transform="translate(-2.5199999809265137, 34.34000015258789)"></path></g> <!----> <!----> <!----> <!----> <!----> <!----> <!----></g></g> <g data-gra="path-slogan" fill-rule="" class="tp-slogan iconsvg-slogansvg" fill="#f90784" transform="translate(5,47.630001068115234)"><rect x="0" height="1" y="4.185000419616699" width="30.409442901611328"></rect> <rect height="1" y="4.185000419616699" width="30.409442901611328" x="135.13055038452148"></rect> <g transform="translate(33.40944290161133,0)"><g transform="scale(1)"><path d="M7.31-3.61L4.69-3.61L4.69-4.59L8.44-4.59L8.44 0L7.69 0L7.41-1.08Q6.42 0.09 4.59 0.14L4.59 0.14Q2.86 0.14 1.92-0.75L1.92-0.75Q0.52-2.06 0.56-4.36L0.56-4.36Q0.89-8.63 4.64-8.81L4.64-8.81Q7.83-8.63 8.30-6L8.30-6L7.17-6Q6.70-7.78 4.59-7.83L4.59-7.83Q1.92-7.64 1.78-4.31L1.78-4.31Q1.78-0.75 4.64-0.75L4.64-0.75Q5.67-0.75 6.42-1.31L6.42-1.31Q7.36-2.06 7.31-3.61L7.31-3.61ZM15.89-3.19L15.89-8.58L17.06-8.58L17.06-3.05Q16.92 0.05 13.55 0.14L13.55 0.14Q10.41 0.05 10.27-2.86L10.27-2.86L10.27-8.58L11.44-8.58L11.44-3.19Q11.48-0.84 13.59-0.80L13.59-0.80Q15.89-0.84 15.89-3.19L15.89-3.19ZM19.03-8.58L20.20-8.58L20.20 0L19.03 0L19.03-8.58ZM23.02-1.03L28.31-1.03L28.31 0L21.56 0L21.56-0.94L26.81-7.59L21.94-7.59L21.94-8.58L28.31-8.58L28.31-7.59L23.02-1.03ZM30.61-5.06L35.11-5.06L35.11-8.58L36.28-8.58L36.28 0L35.11 0L35.11-3.98L30.61-3.98L30.61 0L29.44 0L29.44-8.58L30.61-8.58L30.61-5.06ZM44.86-4.27L44.86-4.27Q44.67-7.64 41.86-7.83L41.86-7.83Q39-7.69 38.86-4.27L38.86-4.27Q39-0.94 41.86-0.80L41.86-0.80Q44.67-0.98 44.86-4.27ZM46.03-4.27L46.03-4.27Q45.75 0 41.86 0.14L41.86 0.14Q37.92 0 37.64-4.27L37.64-4.27Q37.88-8.72 41.86-8.81L41.86-8.81Q45.75-8.67 46.03-4.27ZM53.06-3.19L53.06-8.58L54.23-8.58L54.23-3.05Q54.09 0.05 50.72 0.14L50.72 0.14Q47.58 0.05 47.44-2.86L47.44-2.86L47.44-8.58L48.61-8.58L48.61-3.19Q48.66-0.84 50.77-0.80L50.77-0.80Q53.06-0.84 53.06-3.19L53.06-3.19ZM66.09-8.58L63.19-4.41L66.23 0L64.78 0L62.44-3.52L60.09 0L58.69 0L61.78-4.41L58.88-8.58L60.33-8.58L62.48-5.30L64.69-8.58L66.09-8.58ZM67.50-8.58L68.67-8.58L68.67 0L67.50 0L67.50-8.58ZM72.05-8.58L76.36-1.64L76.36-8.58L77.48-8.58L77.48 0L76.17 0L71.81-6.94L71.77-6.94L71.77 0L70.64 0L70.64-8.58L72.05-8.58ZM85.69-3.61L83.06-3.61L83.06-4.59L86.81-4.59L86.81 0L86.06 0L85.78-1.08Q84.80 0.09 82.97 0.14L82.97 0.14Q81.23 0.14 80.30-0.75L80.30-0.75Q78.89-2.06 78.94-4.36L78.94-4.36Q79.27-8.63 83.02-8.81L83.02-8.81Q86.20-8.63 86.67-6L86.67-6L85.55-6Q85.08-7.78 82.97-7.83L82.97-7.83Q80.30-7.64 80.16-4.31L80.16-4.31Q80.16-0.75 83.02-0.75L83.02-0.75Q84.05-0.75 84.80-1.31L84.80-1.31Q85.73-2.06 85.69-3.61L85.69-3.61ZM93.61-1.08L92.72-1.78L93.33-2.48L94.41-1.64Q95.39-2.63 95.39-4.27L95.39-4.27Q95.20-7.64 92.39-7.83L92.39-7.83Q89.53-7.69 89.39-4.27L89.39-4.27Q89.53-0.94 92.39-0.80L92.39-0.80Q93.09-0.80 93.61-1.08L93.61-1.08ZM95.34-0.94L96.47-0.05L95.91 0.56L94.59-0.33Q93.75 0.14 92.39 0.14L92.39 0.14Q88.45 0 88.17-4.27L88.17-4.27Q88.41-8.72 92.39-8.81L92.39-8.81Q96.28-8.67 96.56-4.27L96.56-4.27Q96.52-2.20 95.34-0.94L95.34-0.94ZM98.11-8.58L99.28-8.58L99.28 0L98.11 0L98.11-8.58Z" transform="translate(-0.5609879032258065, 8.8125)"></path></g></g></g></g></g><defs v-gra="od"></defs></svg>